<mxfile host="65bd71144e">
    <diagram id="9RWI4h1FLhjlYGrTcEec" name="Bridge">
        <mxGraphModel dx="1046" dy="771" grid="1" gridSize="10" guides="1" tooltips="1" connect="1" arrows="1" fold="1" page="1" pageScale="1" pageWidth="1100" pageHeight="850" math="0" shadow="0">
            <root>
                <mxCell id="0"/>
                <mxCell id="1" parent="0"/>
                <mxCell id="8" value="Abstraction" style="swimlane;fontStyle=1;align=center;verticalAlign=top;childLayout=stackLayout;horizontal=1;startSize=26;horizontalStack=0;resizeParent=1;resizeParentMax=0;resizeLast=0;collapsible=1;marginBottom=0;" vertex="1" parent="1">
                    <mxGeometry x="265" y="190" width="160" height="86" as="geometry"/>
                </mxCell>
                <mxCell id="9" value="- i: IImplementatior" style="text;strokeColor=none;fillColor=none;align=left;verticalAlign=top;spacingLeft=4;spacingRight=4;overflow=hidden;rotatable=0;points=[[0,0.5],[1,0.5]];portConstraint=eastwest;" vertex="1" parent="8">
                    <mxGeometry y="26" width="160" height="26" as="geometry"/>
                </mxCell>
                <mxCell id="10" value="" style="line;strokeWidth=1;fillColor=none;align=left;verticalAlign=middle;spacingTop=-1;spacingLeft=3;spacingRight=3;rotatable=0;labelPosition=right;points=[];portConstraint=eastwest;" vertex="1" parent="8">
                    <mxGeometry y="52" width="160" height="8" as="geometry"/>
                </mxCell>
                <mxCell id="11" value="+ Operation()" style="text;strokeColor=none;fillColor=none;align=left;verticalAlign=top;spacingLeft=4;spacingRight=4;overflow=hidden;rotatable=0;points=[[0,0.5],[1,0.5]];portConstraint=eastwest;" vertex="1" parent="8">
                    <mxGeometry y="60" width="160" height="26" as="geometry"/>
                </mxCell>
                <mxCell id="36" value="" style="edgeStyle=none;html=1;endSize=10;endArrow=open;endFill=0;" edge="1" parent="1" source="12" target="8">
                    <mxGeometry relative="1" as="geometry"/>
                </mxCell>
                <mxCell id="sI2mhVW4nW1oPVNvJe0z-38" value="" style="edgeStyle=none;html=1;startArrow=none;startFill=0;endArrow=none;endFill=0;startSize=10;endSize=10;dashed=1;" edge="1" parent="1" source="12" target="sI2mhVW4nW1oPVNvJe0z-37">
                    <mxGeometry relative="1" as="geometry"/>
                </mxCell>
                <mxCell id="12" value="Client" style="html=1;" vertex="1" parent="1">
                    <mxGeometry x="290" y="60" width="110" height="50" as="geometry"/>
                </mxCell>
                <mxCell id="17" value="&lt;&lt;interface&gt;&gt;&#10;IImplementor" style="swimlane;fontStyle=1;align=center;verticalAlign=top;childLayout=stackLayout;horizontal=1;startSize=40;horizontalStack=0;resizeParent=1;resizeParentMax=0;resizeLast=0;collapsible=1;marginBottom=0;" vertex="1" parent="1">
                    <mxGeometry x="560" y="192" width="160" height="74" as="geometry"/>
                </mxCell>
                <mxCell id="19" value="" style="line;strokeWidth=1;fillColor=none;align=left;verticalAlign=middle;spacingTop=-1;spacingLeft=3;spacingRight=3;rotatable=0;labelPosition=right;points=[];portConstraint=eastwest;" vertex="1" parent="17">
                    <mxGeometry y="40" width="160" height="8" as="geometry"/>
                </mxCell>
                <mxCell id="20" value="+ OprationImp()" style="text;strokeColor=none;fillColor=none;align=left;verticalAlign=top;spacingLeft=4;spacingRight=4;overflow=hidden;rotatable=0;points=[[0,0.5],[1,0.5]];portConstraint=eastwest;" vertex="1" parent="17">
                    <mxGeometry y="48" width="160" height="26" as="geometry"/>
                </mxCell>
                <mxCell id="32" value="" style="edgeStyle=none;html=1;endArrow=block;endFill=0;endSize=10;" edge="1" parent="1" source="21" target="20">
                    <mxGeometry relative="1" as="geometry"/>
                </mxCell>
                <mxCell id="21" value="ConcreteImplementorA" style="swimlane;fontStyle=1;align=center;verticalAlign=top;childLayout=stackLayout;horizontal=1;startSize=30;horizontalStack=0;resizeParent=1;resizeParentMax=0;resizeLast=0;collapsible=1;marginBottom=0;" vertex="1" parent="1">
                    <mxGeometry x="470" y="372" width="160" height="64" as="geometry"/>
                </mxCell>
                <mxCell id="22" value="" style="line;strokeWidth=1;fillColor=none;align=left;verticalAlign=middle;spacingTop=-1;spacingLeft=3;spacingRight=3;rotatable=0;labelPosition=right;points=[];portConstraint=eastwest;" vertex="1" parent="21">
                    <mxGeometry y="30" width="160" height="8" as="geometry"/>
                </mxCell>
                <mxCell id="23" value="+ OprationImp()" style="text;strokeColor=none;fillColor=none;align=left;verticalAlign=top;spacingLeft=4;spacingRight=4;overflow=hidden;rotatable=0;points=[[0,0.5],[1,0.5]];portConstraint=eastwest;" vertex="1" parent="21">
                    <mxGeometry y="38" width="160" height="26" as="geometry"/>
                </mxCell>
                <mxCell id="34" value="" style="edgeStyle=none;html=1;endArrow=block;endFill=0;endSize=10;" edge="1" parent="1" source="24" target="17">
                    <mxGeometry relative="1" as="geometry">
                        <mxPoint x="730" y="279" as="targetPoint"/>
                    </mxGeometry>
                </mxCell>
                <mxCell id="24" value="ConcreteImplementorB" style="swimlane;fontStyle=1;align=center;verticalAlign=top;childLayout=stackLayout;horizontal=1;startSize=30;horizontalStack=0;resizeParent=1;resizeParentMax=0;resizeLast=0;collapsible=1;marginBottom=0;" vertex="1" parent="1">
                    <mxGeometry x="650" y="372" width="160" height="64" as="geometry"/>
                </mxCell>
                <mxCell id="25" value="" style="line;strokeWidth=1;fillColor=none;align=left;verticalAlign=middle;spacingTop=-1;spacingLeft=3;spacingRight=3;rotatable=0;labelPosition=right;points=[];portConstraint=eastwest;" vertex="1" parent="24">
                    <mxGeometry y="30" width="160" height="8" as="geometry"/>
                </mxCell>
                <mxCell id="26" value="+ OprationImp()" style="text;strokeColor=none;fillColor=none;align=left;verticalAlign=top;spacingLeft=4;spacingRight=4;overflow=hidden;rotatable=0;points=[[0,0.5],[1,0.5]];portConstraint=eastwest;" vertex="1" parent="24">
                    <mxGeometry y="38" width="160" height="26" as="geometry"/>
                </mxCell>
                <mxCell id="31" value="" style="edgeStyle=none;html=1;endArrow=block;endFill=0;endSize=10;" edge="1" parent="1" source="27" target="8">
                    <mxGeometry relative="1" as="geometry"/>
                </mxCell>
                <mxCell id="27" value="RefinedAbstraction" style="swimlane;fontStyle=1;align=center;verticalAlign=top;childLayout=stackLayout;horizontal=1;startSize=26;horizontalStack=0;resizeParent=1;resizeParentMax=0;resizeLast=0;collapsible=1;marginBottom=0;" vertex="1" parent="1">
                    <mxGeometry x="265" y="350" width="160" height="86" as="geometry"/>
                </mxCell>
                <mxCell id="28" value="- i: IImplementatior" style="text;strokeColor=none;fillColor=none;align=left;verticalAlign=top;spacingLeft=4;spacingRight=4;overflow=hidden;rotatable=0;points=[[0,0.5],[1,0.5]];portConstraint=eastwest;" vertex="1" parent="27">
                    <mxGeometry y="26" width="160" height="26" as="geometry"/>
                </mxCell>
                <mxCell id="29" value="" style="line;strokeWidth=1;fillColor=none;align=left;verticalAlign=middle;spacingTop=-1;spacingLeft=3;spacingRight=3;rotatable=0;labelPosition=right;points=[];portConstraint=eastwest;" vertex="1" parent="27">
                    <mxGeometry y="52" width="160" height="8" as="geometry"/>
                </mxCell>
                <mxCell id="30" value="+ Operation()" style="text;strokeColor=none;fillColor=none;align=left;verticalAlign=top;spacingLeft=4;spacingRight=4;overflow=hidden;rotatable=0;points=[[0,0.5],[1,0.5]];portConstraint=eastwest;" vertex="1" parent="27">
                    <mxGeometry y="60" width="160" height="26" as="geometry"/>
                </mxCell>
                <mxCell id="37" value="Bridge" style="shape=umlFrame;whiteSpace=wrap;html=1;" vertex="1" parent="1">
                    <mxGeometry x="220" y="144" width="540" height="170" as="geometry"/>
                </mxCell>
                <mxCell id="35" value="" style="edgeStyle=none;html=1;startArrow=diamondThin;startFill=0;endSize=10;startSize=10;endArrow=open;endFill=0;" edge="1" parent="1" source="9" target="17">
                    <mxGeometry relative="1" as="geometry"/>
                </mxCell>
                <mxCell id="sI2mhVW4nW1oPVNvJe0z-37" value="Abstraction.Operation()" style="shape=note2;boundedLbl=1;whiteSpace=wrap;html=1;size=25;verticalAlign=top;align=center;" vertex="1" parent="1">
                    <mxGeometry x="470" y="55" width="210" height="60" as="geometry"/>
                </mxCell>
            </root>
        </mxGraphModel>
    </diagram>
    <diagram id="O5wPLWnIDLVSV-E3StXJ" name="Example">
        <mxGraphModel dx="1046" dy="771" grid="1" gridSize="10" guides="1" tooltips="1" connect="1" arrows="1" fold="1" page="1" pageScale="1" pageWidth="1100" pageHeight="850" math="0" shadow="0">
            <root>
                <mxCell id="JTXvpmrMpeTy_cU2zbtB-0"/>
                <mxCell id="JTXvpmrMpeTy_cU2zbtB-1" parent="JTXvpmrMpeTy_cU2zbtB-0"/>
                <mxCell id="klo6eO9m8m-vxKqaLJtY-23" value="Bridge" style="shape=umlFrame;whiteSpace=wrap;html=1;" vertex="1" parent="JTXvpmrMpeTy_cU2zbtB-1">
                    <mxGeometry x="240" y="359" width="540" height="170" as="geometry"/>
                </mxCell>
                <mxCell id="klo6eO9m8m-vxKqaLJtY-0" value="IAbstractionComputer" style="swimlane;fontStyle=1;align=center;verticalAlign=top;childLayout=stackLayout;horizontal=1;startSize=26;horizontalStack=0;resizeParent=1;resizeParentMax=0;resizeLast=0;collapsible=1;marginBottom=0;" vertex="1" parent="JTXvpmrMpeTy_cU2zbtB-1">
                    <mxGeometry x="267.5" y="407" width="195" height="100" as="geometry"/>
                </mxCell>
                <mxCell id="klo6eO9m8m-vxKqaLJtY-1" value="- printer: IImplementorPrinter" style="text;strokeColor=none;fillColor=none;align=left;verticalAlign=top;spacingLeft=4;spacingRight=4;overflow=hidden;rotatable=0;points=[[0,0.5],[1,0.5]];portConstraint=eastwest;" vertex="1" parent="klo6eO9m8m-vxKqaLJtY-0">
                    <mxGeometry y="26" width="195" height="26" as="geometry"/>
                </mxCell>
                <mxCell id="klo6eO9m8m-vxKqaLJtY-2" value="" style="line;strokeWidth=1;fillColor=none;align=left;verticalAlign=middle;spacingTop=-1;spacingLeft=3;spacingRight=3;rotatable=0;labelPosition=right;points=[];portConstraint=eastwest;" vertex="1" parent="klo6eO9m8m-vxKqaLJtY-0">
                    <mxGeometry y="52" width="195" height="8" as="geometry"/>
                </mxCell>
                <mxCell id="klo6eO9m8m-vxKqaLJtY-3" value="+ SetPrinter(IImplementorPrinter)&#10;+ Print()" style="text;strokeColor=none;fillColor=none;align=left;verticalAlign=top;spacingLeft=4;spacingRight=4;overflow=hidden;rotatable=0;points=[[0,0.5],[1,0.5]];portConstraint=eastwest;" vertex="1" parent="klo6eO9m8m-vxKqaLJtY-0">
                    <mxGeometry y="60" width="195" height="40" as="geometry"/>
                </mxCell>
                <mxCell id="klo6eO9m8m-vxKqaLJtY-4" value="" style="edgeStyle=none;html=1;endSize=10;endArrow=open;endFill=0;" edge="1" parent="JTXvpmrMpeTy_cU2zbtB-1" source="klo6eO9m8m-vxKqaLJtY-6" target="klo6eO9m8m-vxKqaLJtY-0">
                    <mxGeometry relative="1" as="geometry"/>
                </mxCell>
                <mxCell id="klo6eO9m8m-vxKqaLJtY-5" value="" style="edgeStyle=none;html=1;startArrow=none;startFill=0;endArrow=none;endFill=0;startSize=10;endSize=10;dashed=1;" edge="1" parent="JTXvpmrMpeTy_cU2zbtB-1" source="klo6eO9m8m-vxKqaLJtY-6" target="klo6eO9m8m-vxKqaLJtY-25">
                    <mxGeometry relative="1" as="geometry"/>
                </mxCell>
                <mxCell id="klo6eO9m8m-vxKqaLJtY-6" value="Client" style="html=1;" vertex="1" parent="JTXvpmrMpeTy_cU2zbtB-1">
                    <mxGeometry x="310" y="275" width="110" height="50" as="geometry"/>
                </mxCell>
                <mxCell id="klo6eO9m8m-vxKqaLJtY-7" value="&lt;&lt;interface&gt;&gt;&#10;IImplementorPrinter" style="swimlane;fontStyle=1;align=center;verticalAlign=top;childLayout=stackLayout;horizontal=1;startSize=40;horizontalStack=0;resizeParent=1;resizeParentMax=0;resizeLast=0;collapsible=1;marginBottom=0;" vertex="1" parent="JTXvpmrMpeTy_cU2zbtB-1">
                    <mxGeometry x="580" y="409" width="160" height="74" as="geometry"/>
                </mxCell>
                <mxCell id="klo6eO9m8m-vxKqaLJtY-8" value="" style="line;strokeWidth=1;fillColor=none;align=left;verticalAlign=middle;spacingTop=-1;spacingLeft=3;spacingRight=3;rotatable=0;labelPosition=right;points=[];portConstraint=eastwest;" vertex="1" parent="klo6eO9m8m-vxKqaLJtY-7">
                    <mxGeometry y="40" width="160" height="8" as="geometry"/>
                </mxCell>
                <mxCell id="klo6eO9m8m-vxKqaLJtY-9" value="+ PrintFile()" style="text;strokeColor=none;fillColor=none;align=left;verticalAlign=top;spacingLeft=4;spacingRight=4;overflow=hidden;rotatable=0;points=[[0,0.5],[1,0.5]];portConstraint=eastwest;" vertex="1" parent="klo6eO9m8m-vxKqaLJtY-7">
                    <mxGeometry y="48" width="160" height="26" as="geometry"/>
                </mxCell>
                <mxCell id="klo6eO9m8m-vxKqaLJtY-10" value="" style="edgeStyle=none;html=1;endArrow=block;endFill=0;endSize=10;" edge="1" parent="JTXvpmrMpeTy_cU2zbtB-1" source="klo6eO9m8m-vxKqaLJtY-11" target="klo6eO9m8m-vxKqaLJtY-9">
                    <mxGeometry relative="1" as="geometry"/>
                </mxCell>
                <mxCell id="klo6eO9m8m-vxKqaLJtY-11" value="ConcreteImplementorHP" style="swimlane;fontStyle=1;align=center;verticalAlign=top;childLayout=stackLayout;horizontal=1;startSize=30;horizontalStack=0;resizeParent=1;resizeParentMax=0;resizeLast=0;collapsible=1;marginBottom=0;" vertex="1" parent="JTXvpmrMpeTy_cU2zbtB-1">
                    <mxGeometry x="490" y="587" width="160" height="38" as="geometry"/>
                </mxCell>
                <mxCell id="klo6eO9m8m-vxKqaLJtY-12" value="" style="line;strokeWidth=1;fillColor=none;align=left;verticalAlign=middle;spacingTop=-1;spacingLeft=3;spacingRight=3;rotatable=0;labelPosition=right;points=[];portConstraint=eastwest;" vertex="1" parent="klo6eO9m8m-vxKqaLJtY-11">
                    <mxGeometry y="30" width="160" height="8" as="geometry"/>
                </mxCell>
                <mxCell id="klo6eO9m8m-vxKqaLJtY-14" value="" style="edgeStyle=none;html=1;endArrow=block;endFill=0;endSize=10;" edge="1" parent="JTXvpmrMpeTy_cU2zbtB-1" source="klo6eO9m8m-vxKqaLJtY-15" target="klo6eO9m8m-vxKqaLJtY-7">
                    <mxGeometry relative="1" as="geometry">
                        <mxPoint x="750" y="494" as="targetPoint"/>
                    </mxGeometry>
                </mxCell>
                <mxCell id="klo6eO9m8m-vxKqaLJtY-15" value="ConcreteImplementorEPSON" style="swimlane;fontStyle=1;align=center;verticalAlign=top;childLayout=stackLayout;horizontal=1;startSize=30;horizontalStack=0;resizeParent=1;resizeParentMax=0;resizeLast=0;collapsible=1;marginBottom=0;" vertex="1" parent="JTXvpmrMpeTy_cU2zbtB-1">
                    <mxGeometry x="670" y="587" width="190" height="38" as="geometry"/>
                </mxCell>
                <mxCell id="klo6eO9m8m-vxKqaLJtY-16" value="" style="line;strokeWidth=1;fillColor=none;align=left;verticalAlign=middle;spacingTop=-1;spacingLeft=3;spacingRight=3;rotatable=0;labelPosition=right;points=[];portConstraint=eastwest;" vertex="1" parent="klo6eO9m8m-vxKqaLJtY-15">
                    <mxGeometry y="30" width="190" height="8" as="geometry"/>
                </mxCell>
                <mxCell id="klo6eO9m8m-vxKqaLJtY-18" value="" style="edgeStyle=none;html=1;endArrow=block;endFill=0;endSize=10;" edge="1" parent="JTXvpmrMpeTy_cU2zbtB-1" source="klo6eO9m8m-vxKqaLJtY-19" target="klo6eO9m8m-vxKqaLJtY-0">
                    <mxGeometry relative="1" as="geometry"/>
                </mxCell>
                <mxCell id="klo6eO9m8m-vxKqaLJtY-19" value="RefinedAbstractionMac" style="swimlane;fontStyle=1;align=center;verticalAlign=top;childLayout=stackLayout;horizontal=1;startSize=26;horizontalStack=0;resizeParent=1;resizeParentMax=0;resizeLast=0;collapsible=1;marginBottom=0;" vertex="1" parent="JTXvpmrMpeTy_cU2zbtB-1">
                    <mxGeometry x="40" y="540" width="160" height="34" as="geometry"/>
                </mxCell>
                <mxCell id="klo6eO9m8m-vxKqaLJtY-21" value="" style="line;strokeWidth=1;fillColor=none;align=left;verticalAlign=middle;spacingTop=-1;spacingLeft=3;spacingRight=3;rotatable=0;labelPosition=right;points=[];portConstraint=eastwest;" vertex="1" parent="klo6eO9m8m-vxKqaLJtY-19">
                    <mxGeometry y="26" width="160" height="8" as="geometry"/>
                </mxCell>
                <mxCell id="klo6eO9m8m-vxKqaLJtY-24" value="" style="edgeStyle=none;html=1;startArrow=diamondThin;startFill=0;endSize=10;startSize=10;endArrow=open;endFill=0;" edge="1" parent="JTXvpmrMpeTy_cU2zbtB-1" source="klo6eO9m8m-vxKqaLJtY-1" target="klo6eO9m8m-vxKqaLJtY-7">
                    <mxGeometry relative="1" as="geometry"/>
                </mxCell>
                <mxCell id="klo6eO9m8m-vxKqaLJtY-25" value="IAbstractionConputer.Print()" style="shape=note2;boundedLbl=1;whiteSpace=wrap;html=1;size=25;verticalAlign=top;align=center;" vertex="1" parent="JTXvpmrMpeTy_cU2zbtB-1">
                    <mxGeometry x="490" y="270" width="210" height="60" as="geometry"/>
                </mxCell>
                <mxCell id="klo6eO9m8m-vxKqaLJtY-60" value="" style="edgeStyle=none;html=1;startArrow=none;startFill=0;endArrow=block;endFill=0;startSize=10;endSize=10;" edge="1" parent="JTXvpmrMpeTy_cU2zbtB-1" source="klo6eO9m8m-vxKqaLJtY-58" target="klo6eO9m8m-vxKqaLJtY-3">
                    <mxGeometry relative="1" as="geometry"/>
                </mxCell>
                <mxCell id="klo6eO9m8m-vxKqaLJtY-58" value="RefinedAbstractionWindows" style="swimlane;fontStyle=1;align=center;verticalAlign=top;childLayout=stackLayout;horizontal=1;startSize=26;horizontalStack=0;resizeParent=1;resizeParentMax=0;resizeLast=0;collapsible=1;marginBottom=0;" vertex="1" parent="JTXvpmrMpeTy_cU2zbtB-1">
                    <mxGeometry x="97.5" y="617" width="170" height="34" as="geometry"/>
                </mxCell>
                <mxCell id="klo6eO9m8m-vxKqaLJtY-59" value="" style="line;strokeWidth=1;fillColor=none;align=left;verticalAlign=middle;spacingTop=-1;spacingLeft=3;spacingRight=3;rotatable=0;labelPosition=right;points=[];portConstraint=eastwest;" vertex="1" parent="klo6eO9m8m-vxKqaLJtY-58">
                    <mxGeometry y="26" width="170" height="8" as="geometry"/>
                </mxCell>
                <mxCell id="klo6eO9m8m-vxKqaLJtY-63" value="" style="edgeStyle=none;jumpSize=9;html=1;startArrow=none;startFill=0;endArrow=block;endFill=0;startSize=10;endSize=10;" edge="1" parent="JTXvpmrMpeTy_cU2zbtB-1" source="klo6eO9m8m-vxKqaLJtY-61" target="klo6eO9m8m-vxKqaLJtY-3">
                    <mxGeometry relative="1" as="geometry"/>
                </mxCell>
                <mxCell id="klo6eO9m8m-vxKqaLJtY-61" value="RefinedAbstractionLinux" style="swimlane;fontStyle=1;align=center;verticalAlign=top;childLayout=stackLayout;horizontal=1;startSize=26;horizontalStack=0;resizeParent=1;resizeParentMax=0;resizeLast=0;collapsible=1;marginBottom=0;" vertex="1" parent="JTXvpmrMpeTy_cU2zbtB-1">
                    <mxGeometry x="280" y="617" width="160" height="34" as="geometry"/>
                </mxCell>
                <mxCell id="klo6eO9m8m-vxKqaLJtY-62" value="" style="line;strokeWidth=1;fillColor=none;align=left;verticalAlign=middle;spacingTop=-1;spacingLeft=3;spacingRight=3;rotatable=0;labelPosition=right;points=[];portConstraint=eastwest;" vertex="1" parent="klo6eO9m8m-vxKqaLJtY-61">
                    <mxGeometry y="26" width="160" height="8" as="geometry"/>
                </mxCell>
                <mxCell id="klo6eO9m8m-vxKqaLJtY-66" value="" style="edgeStyle=none;jumpSize=9;html=1;startArrow=none;startFill=0;endArrow=block;endFill=0;startSize=10;endSize=10;" edge="1" parent="JTXvpmrMpeTy_cU2zbtB-1" source="klo6eO9m8m-vxKqaLJtY-64" target="klo6eO9m8m-vxKqaLJtY-7">
                    <mxGeometry relative="1" as="geometry"/>
                </mxCell>
                <mxCell id="klo6eO9m8m-vxKqaLJtY-64" value="ConcreteImplementorCanon" style="swimlane;fontStyle=1;align=center;verticalAlign=top;childLayout=stackLayout;horizontal=1;startSize=30;horizontalStack=0;resizeParent=1;resizeParentMax=0;resizeLast=0;collapsible=1;marginBottom=0;" vertex="1" parent="JTXvpmrMpeTy_cU2zbtB-1">
                    <mxGeometry x="810" y="427" width="190" height="38" as="geometry"/>
                </mxCell>
                <mxCell id="klo6eO9m8m-vxKqaLJtY-65" value="" style="line;strokeWidth=1;fillColor=none;align=left;verticalAlign=middle;spacingTop=-1;spacingLeft=3;spacingRight=3;rotatable=0;labelPosition=right;points=[];portConstraint=eastwest;" vertex="1" parent="klo6eO9m8m-vxKqaLJtY-64">
                    <mxGeometry y="30" width="190" height="8" as="geometry"/>
                </mxCell>
            </root>
        </mxGraphModel>
    </diagram>
</mxfile>